<mxfile host="65bd71144e">
    <diagram name="Repositorio Git - microservicios-api" id="git-repo-diagram">
        <mxGraphModel dx="1317" dy="711" grid="1" gridSize="10" guides="1" tooltips="1" connect="1" arrows="1" fold="1" page="1" pageScale="1" pageWidth="827" pageHeight="1169" math="0" shadow="0">
            <root>
                <mxCell id="0"/>
                <mxCell id="1" parent="0"/>
                <mxCell id="repo-principal" value="" style="rounded=1;whiteSpace=wrap;html=1;fillColor=#e1d5e7;strokeColor=#9673a6;strokeWidth=2;" parent="1" vertex="1">
                    <mxGeometry x="314" y="130" width="200" height="120" as="geometry"/>
                </mxCell>
                <mxCell id="repo-principal-title" value="Repositorio Principal&lt;br&gt;&lt;b&gt;microservicios-api&lt;/b&gt;" style="text;html=1;strokeColor=none;fillColor=none;align=center;verticalAlign=middle;whiteSpace=wrap;rounded=0;fontStyle=1;fontSize=14;" parent="1" vertex="1">
                    <mxGeometry x="314" y="140" width="200" height="30" as="geometry"/>
                </mxCell>
                <mxCell id="main-branch-principal" value="main" style="rounded=1;whiteSpace=wrap;html=1;fillColor=#d5e8d4;strokeColor=#82b366;" parent="1" vertex="1">
                    <mxGeometry x="364" y="190" width="100" height="30" as="geometry"/>
                </mxCell>
                <mxCell id="4" style="edgeStyle=none;html=1;dashed=1;strokeWidth=2;fillColor=#76608a;strokeColor=#432D57;endArrow=none;endFill=0;" edge="1" parent="1" source="fork1" target="2">
                    <mxGeometry relative="1" as="geometry"/>
                </mxCell>
                <mxCell id="5" value="git pull" style="edgeLabel;html=1;align=center;verticalAlign=middle;resizable=0;points=[];fontStyle=1" vertex="1" connectable="0" parent="4">
                    <mxGeometry x="-0.0621" y="-1" relative="1" as="geometry">
                        <mxPoint as="offset"/>
                    </mxGeometry>
                </mxCell>
                <mxCell id="fork1" value="" style="rounded=1;whiteSpace=wrap;html=1;fillColor=#fff2cc;strokeColor=#d6b656;strokeWidth=2;" parent="1" vertex="1">
                    <mxGeometry x="74" y="350" width="200" height="160" as="geometry"/>
                </mxCell>
                <mxCell id="fork1-title" value="Fork 1&lt;br&gt;&lt;b&gt;dev1/microservicios-api&lt;/b&gt;" style="text;html=1;strokeColor=none;fillColor=none;align=center;verticalAlign=middle;whiteSpace=wrap;rounded=0;fontStyle=1;fontSize=12;" parent="1" vertex="1">
                    <mxGeometry x="74" y="360" width="200" height="30" as="geometry"/>
                </mxCell>
                <mxCell id="main-branch-fork1" value="main" style="rounded=1;whiteSpace=wrap;html=1;fillColor=#d5e8d4;strokeColor=#82b366;" parent="1" vertex="1">
                    <mxGeometry x="124" y="400" width="100" height="30" as="geometry"/>
                </mxCell>
                <mxCell id="trabajo-branch-fork1" value="trabajo" style="rounded=1;whiteSpace=wrap;html=1;fillColor=#dae8fc;strokeColor=#6c8ebf;" parent="1" vertex="1">
                    <mxGeometry x="124" y="464" width="100" height="30" as="geometry"/>
                </mxCell>
                <mxCell id="fork2" value="" style="rounded=1;whiteSpace=wrap;html=1;fillColor=#fff2cc;strokeColor=#d6b656;strokeWidth=2;" parent="1" vertex="1">
                    <mxGeometry x="554" y="350" width="200" height="160" as="geometry"/>
                </mxCell>
                <mxCell id="fork2-title" value="Fork 2&lt;br&gt;&lt;b&gt;dev2/microservicios-api&lt;/b&gt;" style="text;html=1;strokeColor=none;fillColor=none;align=center;verticalAlign=middle;whiteSpace=wrap;rounded=0;fontStyle=1;fontSize=12;" parent="1" vertex="1">
                    <mxGeometry x="554" y="360" width="200" height="30" as="geometry"/>
                </mxCell>
                <mxCell id="main-branch-fork2" value="main" style="rounded=1;whiteSpace=wrap;html=1;fillColor=#d5e8d4;strokeColor=#82b366;" parent="1" vertex="1">
                    <mxGeometry x="604" y="400" width="100" height="30" as="geometry"/>
                </mxCell>
                <mxCell id="trabajo-branch-fork2" value="trabajo" style="rounded=1;whiteSpace=wrap;html=1;fillColor=#dae8fc;strokeColor=#6c8ebf;" parent="1" vertex="1">
                    <mxGeometry x="604" y="464" width="100" height="30" as="geometry"/>
                </mxCell>
                <mxCell id="fork-arrow1" value="" style="endArrow=classic;html=1;rounded=0;exitX=0.25;exitY=1;exitDx=0;exitDy=0;entryX=0.5;entryY=0;entryDx=0;entryDy=0;strokeColor=#d79b00;strokeWidth=2;" parent="1" source="repo-principal" target="fork1" edge="1">
                    <mxGeometry width="50" height="50" relative="1" as="geometry">
                        <mxPoint x="364" y="300" as="sourcePoint"/>
                        <mxPoint x="414" y="250" as="targetPoint"/>
                    </mxGeometry>
                </mxCell>
                <mxCell id="fork-label1" value="fork" style="edgeLabel;html=1;align=center;verticalAlign=middle;resizable=0;points=[];fontStyle=1;fontSize=10;" parent="fork-arrow1" vertex="1" connectable="0">
                    <mxGeometry x="-0.1" y="1" relative="1" as="geometry">
                        <mxPoint as="offset"/>
                    </mxGeometry>
                </mxCell>
                <mxCell id="fork-arrow2" value="" style="endArrow=classic;html=1;rounded=0;exitX=0.75;exitY=1;exitDx=0;exitDy=0;entryX=0.5;entryY=0;entryDx=0;entryDy=0;strokeColor=#d79b00;strokeWidth=2;" parent="1" source="repo-principal" target="fork2" edge="1">
                    <mxGeometry width="50" height="50" relative="1" as="geometry">
                        <mxPoint x="494" y="300" as="sourcePoint"/>
                        <mxPoint x="544" y="250" as="targetPoint"/>
                    </mxGeometry>
                </mxCell>
                <mxCell id="fork-label2" value="fork" style="edgeLabel;html=1;align=center;verticalAlign=middle;resizable=0;points=[];fontStyle=1;fontSize=10;" parent="fork-arrow2" vertex="1" connectable="0">
                    <mxGeometry x="-0.1" y="1" relative="1" as="geometry">
                        <mxPoint as="offset"/>
                    </mxGeometry>
                </mxCell>
                <mxCell id="branch-arrow1" value="" style="endArrow=classic;html=1;rounded=0;exitX=0.5;exitY=1;exitDx=0;exitDy=0;entryX=0.5;entryY=0;entryDx=0;entryDy=0;strokeColor=#6c8ebf;strokeWidth=2;" parent="1" source="main-branch-fork1" target="trabajo-branch-fork1" edge="1">
                    <mxGeometry width="50" height="50" relative="1" as="geometry">
                        <mxPoint x="194" y="440" as="sourcePoint"/>
                        <mxPoint x="244" y="390" as="targetPoint"/>
                    </mxGeometry>
                </mxCell>
                <mxCell id="branch-arrow2" value="" style="endArrow=classic;html=1;rounded=0;strokeColor=#6c8ebf;strokeWidth=2;" parent="1" source="main-branch-fork2" target="trabajo-branch-fork2" edge="1">
                    <mxGeometry width="50" height="50" relative="1" as="geometry">
                        <mxPoint x="674" y="440" as="sourcePoint"/>
                        <mxPoint x="724" y="390" as="targetPoint"/>
                    </mxGeometry>
                </mxCell>
                <mxCell id="branch-label2" value="branch" style="edgeLabel;html=1;align=center;verticalAlign=middle;resizable=0;points=[];fontStyle=1;fontSize=10;labelBackgroundColor=none;" parent="branch-arrow2" vertex="1" connectable="0">
                    <mxGeometry x="-0.1" y="1" relative="1" as="geometry">
                        <mxPoint x="21" y="-4" as="offset"/>
                    </mxGeometry>
                </mxCell>
                <mxCell id="script-box" value="" style="rounded=1;whiteSpace=wrap;html=1;fillColor=#f8cecc;strokeColor=#b85450;strokeWidth=2;" parent="1" vertex="1">
                    <mxGeometry x="330" y="375" width="170" height="80" as="geometry"/>
                </mxCell>
                <mxCell id="script-title" value="&lt;b&gt;mainsync.sh&lt;/b&gt;&lt;br&gt;Script de SincronizaciÃ³n" style="text;html=1;strokeColor=none;fillColor=none;align=center;verticalAlign=middle;whiteSpace=wrap;rounded=0;fontStyle=1;fontSize=12;" parent="1" vertex="1">
                    <mxGeometry x="340" y="395" width="150" height="40" as="geometry"/>
                </mxCell>
                <mxCell id="sync-arrow" value="" style="endArrow=classic;html=1;rounded=0;strokeColor=#B20000;strokeWidth=2;strokeStyle=dashed;fillColor=#e51400;" parent="1" source="repo-principal" target="script-box" edge="1">
                    <mxGeometry width="50" height="50" relative="1" as="geometry">
                        <mxPoint x="414" y="350" as="sourcePoint"/>
                        <mxPoint x="464" y="300" as="targetPoint"/>
                    </mxGeometry>
                </mxCell>
                <mxCell id="sync-fork1" value="" style="endArrow=classic;html=1;rounded=0;strokeColor=#B20000;strokeWidth=2;strokeStyle=dashed;fillColor=#e51400;" parent="1" source="script-box" target="main-branch-fork1" edge="1">
                    <mxGeometry width="50" height="50" relative="1" as="geometry">
                        <mxPoint x="244" y="550" as="sourcePoint"/>
                        <mxPoint x="294" y="500" as="targetPoint"/>
                        <Array as="points"/>
                    </mxGeometry>
                </mxCell>
                <mxCell id="sync-fork1-label" value="sincroniza" style="edgeLabel;html=1;align=center;verticalAlign=middle;resizable=0;points=[];fontStyle=1;fontSize=9;labelBackgroundColor=none;" parent="sync-fork1" vertex="1" connectable="0">
                    <mxGeometry x="-0.1" y="1" relative="1" as="geometry">
                        <mxPoint x="19" y="-9" as="offset"/>
                    </mxGeometry>
                </mxCell>
                <mxCell id="sync-fork2" value="" style="endArrow=classic;html=1;rounded=0;strokeColor=#B20000;strokeWidth=2;strokeStyle=dashed;fillColor=#e51400;" parent="1" source="script-box" target="main-branch-fork2" edge="1">
                    <mxGeometry width="50" height="50" relative="1" as="geometry">
                        <mxPoint x="564" y="550" as="sourcePoint"/>
                        <mxPoint x="614" y="500" as="targetPoint"/>
                    </mxGeometry>
                </mxCell>
                <mxCell id="sync-fork2-label" value="sincroniza" style="edgeLabel;html=1;align=center;verticalAlign=middle;resizable=0;points=[];fontStyle=1;fontSize=9;labelBackgroundColor=none;" parent="sync-fork2" vertex="1" connectable="0">
                    <mxGeometry x="-0.1" y="1" relative="1" as="geometry">
                        <mxPoint x="-21" y="-7" as="offset"/>
                    </mxGeometry>
                </mxCell>
                <mxCell id="diagram-title" value="&lt;b&gt;Estructura del Repositorio Git - microservicios-api&lt;/b&gt;&lt;br&gt;SincronizaciÃ³n automÃ¡tica con mainsync.sh" style="text;html=1;strokeColor=none;fillColor=none;align=center;verticalAlign=middle;whiteSpace=wrap;rounded=0;fontStyle=1;fontSize=16;" parent="1" vertex="1">
                    <mxGeometry x="214" y="40" width="400" height="40" as="geometry"/>
                </mxCell>
                <mxCell id="change-indicator" value="â¡ CAMBIO" style="ellipse;whiteSpace=wrap;html=1;fillColor=#fff2cc;strokeColor=#d6b656;fontStyle=1;fontSize=11;strokeWidth=2;" parent="1" vertex="1">
                    <mxGeometry x="184" y="185" width="90" height="40" as="geometry"/>
                </mxCell>
                <mxCell id="2" value="Codespace" style="rounded=0;whiteSpace=wrap;html=1;fillColor=#76608a;fontColor=#ffffff;strokeColor=#432D57;strokeWidth=2;fontStyle=1" vertex="1" parent="1">
                    <mxGeometry x="114" y="565" width="120" height="60" as="geometry"/>
                </mxCell>
                <mxCell id="6" style="edgeStyle=none;html=1;dashed=1;endArrow=none;endFill=0;strokeWidth=2;fillColor=#76608a;strokeColor=#432D57;" edge="1" target="8" parent="1" source="fork2">
                    <mxGeometry relative="1" as="geometry">
                        <mxPoint x="802" y="515" as="sourcePoint"/>
                    </mxGeometry>
                </mxCell>
                <mxCell id="7" value="git pull" style="edgeLabel;html=1;align=center;verticalAlign=middle;resizable=0;points=[];fontStyle=1" vertex="1" connectable="0" parent="6">
                    <mxGeometry x="-0.0621" y="-1" relative="1" as="geometry">
                        <mxPoint as="offset"/>
                    </mxGeometry>
                </mxCell>
                <mxCell id="8" value="Codespace" style="rounded=0;whiteSpace=wrap;html=1;fillColor=#76608a;fontColor=#ffffff;strokeColor=#432D57;strokeWidth=2;fontStyle=1" vertex="1" parent="1">
                    <mxGeometry x="594" y="565" width="120" height="60" as="geometry"/>
                </mxCell>
                <mxCell id="13" style="edgeStyle=none;html=1;strokeWidth=2;fillColor=#e51400;strokeColor=#B20000;" edge="1" parent="1" source="9" target="change-indicator">
                    <mxGeometry relative="1" as="geometry"/>
                </mxCell>
                <mxCell id="9" value="DueÃ±o" style="shape=umlActor;verticalLabelPosition=bottom;verticalAlign=top;html=1;outlineConnect=0;fontStyle=1;fillColor=#f0a30a;fontColor=#000000;strokeColor=#BD7000;strokeWidth=3;" vertex="1" parent="1">
                    <mxGeometry x="124" y="175" width="30" height="60" as="geometry"/>
                </mxCell>
                <mxCell id="11" value="" style="endArrow=classic;html=1;rounded=0;strokeColor=#B20000;strokeWidth=2;strokeStyle=dashed;fillColor=#e51400;" edge="1" parent="1" source="change-indicator" target="main-branch-principal">
                    <mxGeometry width="50" height="50" relative="1" as="geometry">
                        <mxPoint x="424" y="260" as="sourcePoint"/>
                        <mxPoint x="424" y="610" as="targetPoint"/>
                    </mxGeometry>
                </mxCell>
                <mxCell id="16" value="" style="endArrow=classic;html=1;rounded=0;strokeColor=#B20000;strokeWidth=2;strokeStyle=dashed;fillColor=#e51400;exitX=0.75;exitY=1;exitDx=0;exitDy=0;entryX=0.75;entryY=0;entryDx=0;entryDy=0;" edge="1" parent="1" source="main-branch-fork1" target="trabajo-branch-fork1">
                    <mxGeometry width="50" height="50" relative="1" as="geometry">
                        <mxPoint x="340" y="425" as="sourcePoint"/>
                        <mxPoint x="234" y="425" as="targetPoint"/>
                        <Array as="points"/>
                    </mxGeometry>
                </mxCell>
                <mxCell id="18" value="" style="endArrow=classic;html=1;rounded=0;strokeColor=#B20000;strokeWidth=2;strokeStyle=dashed;fillColor=#e51400;entryX=0.25;entryY=0;entryDx=0;entryDy=0;exitX=0.25;exitY=1;exitDx=0;exitDy=0;" edge="1" parent="1" source="main-branch-fork2" target="trabajo-branch-fork2">
                    <mxGeometry width="50" height="50" relative="1" as="geometry">
                        <mxPoint x="410" y="520" as="sourcePoint"/>
                        <mxPoint x="209" y="474" as="targetPoint"/>
                        <Array as="points"/>
                    </mxGeometry>
                </mxCell>
                <mxCell id="19" value="" style="image;aspect=fixed;html=1;points=[];align=center;fontSize=12;image=img/lib/azure2/general/Branch.svg;" vertex="1" parent="1">
                    <mxGeometry x="131" y="471" width="16" height="16" as="geometry"/>
                </mxCell>
                <mxCell id="20" value="" style="image;aspect=fixed;html=1;points=[];align=center;fontSize=12;image=img/lib/azure2/general/Branch.svg;" vertex="1" parent="1">
                    <mxGeometry x="614" y="471" width="16" height="16" as="geometry"/>
                </mxCell>
                <mxCell id="21" value="" style="verticalLabelPosition=bottom;html=1;verticalAlign=top;align=center;strokeColor=none;fillColor=#00BEF2;shape=mxgraph.azure.visual_studio_online;" vertex="1" parent="1">
                    <mxGeometry x="118" y="568" width="16" height="15" as="geometry"/>
                </mxCell>
                <mxCell id="22" value="" style="verticalLabelPosition=bottom;html=1;verticalAlign=top;align=center;strokeColor=none;fillColor=#00BEF2;shape=mxgraph.azure.visual_studio_online;" vertex="1" parent="1">
                    <mxGeometry x="597" y="568" width="16" height="15" as="geometry"/>
                </mxCell>
            </root>
        </mxGraphModel>
    </diagram>
</mxfile>